<?xml version="1.0" encoding="UTF-8"?>
<!DOCTYPE svg PUBLIC "-//W3C//DTD SVG 1.1//EN" "http://www.w3.org/Graphics/SVG/1.1/DTD/svg11.dtd">
<svg xmlns="http://www.w3.org/2000/svg" style="background-color: rgb(255, 255, 255);" xmlns:xlink="http://www.w3.org/1999/xlink" version="1.1" width="522px" height="692px" viewBox="-0.5 -0.5 522 692"><defs><clipPath id="mx-clip-89-561-152-26-0"><rect x="89" y="561" width="152" height="26"/></clipPath><clipPath id="mx-clip-89-661-152-26-0"><rect x="89" y="661" width="152" height="26"/></clipPath><clipPath id="mx-clip-365-201-152-26-0"><rect x="365" y="201" width="152" height="26"/></clipPath><clipPath id="mx-clip-365-227-152-26-0"><rect x="365" y="227" width="152" height="26"/></clipPath><clipPath id="mx-clip-365-301-152-26-0"><rect x="365" y="301" width="152" height="26"/></clipPath><clipPath id="mx-clip-365-327-152-26-0"><rect x="365" y="327" width="152" height="26"/></clipPath><clipPath id="mx-clip-365-31-152-26-0"><rect x="365" y="31" width="152" height="26"/></clipPath><clipPath id="mx-clip-364-101-152-26-0"><rect x="364" y="101" width="152" height="26"/></clipPath><clipPath id="mx-clip-364-127-152-26-0"><rect x="364" y="127" width="152" height="26"/></clipPath><clipPath id="mx-clip-365-401-152-26-0"><rect x="365" y="401" width="152" height="26"/></clipPath><clipPath id="mx-clip-365-473-152-26-0"><rect x="365" y="473" width="152" height="26"/></clipPath><clipPath id="mx-clip-294-578-152-26-0"><rect x="294" y="578" width="152" height="26"/></clipPath></defs><g><path d="M 165 590 L 165 610 L 165 600 L 165 616.29" fill="none" stroke="rgb(0, 0, 0)" stroke-miterlimit="10" pointer-events="stroke"/><path d="M 165 629.29 L 158.5 622.79 L 165 616.29 L 171.5 622.79 Z" fill="rgb(0, 0, 0)" stroke="rgb(0, 0, 0)" stroke-miterlimit="10" pointer-events="all"/><path d="M 85 556 L 85 530 L 245 530 L 245 556" fill="rgb(255, 255, 255)" stroke="rgb(0, 0, 0)" stroke-miterlimit="10" pointer-events="all"/><path d="M 85 556 L 85 590 L 245 590 L 245 556" fill="none" stroke="rgb(0, 0, 0)" stroke-miterlimit="10" pointer-events="none"/><path d="M 85 556 L 245 556" fill="none" stroke="rgb(0, 0, 0)" stroke-miterlimit="10" pointer-events="none"/><g fill="rgb(0, 0, 0)" font-family="Helvetica" font-weight="bold" pointer-events="none" text-anchor="middle" font-size="12px"><text x="164.5" y="547.5">Parameter&lt;V&gt;</text></g><g fill="rgb(0, 0, 0)" font-family="Helvetica" pointer-events="none" clip-path="url(#mx-clip-89-561-152-26-0)" font-size="12px"><text x="90.5" y="573.5">+ constraints</text></g><path d="M 85 586 L 245 586" fill="none" stroke="rgb(0, 0, 0)" stroke-miterlimit="10" pointer-events="none"/><path d="M 85 656 L 85 630 L 245 630 L 245 656" fill="rgb(255, 255, 255)" stroke="rgb(0, 0, 0)" stroke-miterlimit="10" pointer-events="none"/><path d="M 85 656 L 85 690 L 245 690 L 245 656" fill="none" stroke="rgb(0, 0, 0)" stroke-miterlimit="10" pointer-events="none"/><path d="M 85 656 L 245 656" fill="none" stroke="rgb(0, 0, 0)" stroke-miterlimit="10" pointer-events="none"/><g fill="rgb(0, 0, 0)" font-family="Helvetica" font-weight="bold" pointer-events="none" text-anchor="middle" font-size="12px"><text x="164.5" y="647.5">ParameterSet</text></g><g fill="rgb(0, 0, 0)" font-family="Helvetica" pointer-events="none" clip-path="url(#mx-clip-89-661-152-26-0)" font-size="12px"><text x="90.5" y="673.5">+ parameters</text></g><path d="M 85 686 L 245 686" fill="none" stroke="rgb(0, 0, 0)" stroke-miterlimit="10" pointer-events="none"/><path d="M 160 177 L 180 177 L 180 515.88" fill="none" stroke="rgb(0, 0, 0)" stroke-miterlimit="10" pointer-events="none"/><path d="M 180 528.88 L 173.5 515.88 L 186.5 515.88 Z" fill="none" stroke="rgb(0, 0, 0)" stroke-miterlimit="10" pointer-events="none"/><path d="M 0 186 L 0 160 L 160 160 L 160 186" fill="rgb(255, 255, 255)" stroke="rgb(0, 0, 0)" stroke-miterlimit="10" pointer-events="none"/><path d="M 0 186 L 0 194 L 160 194 L 160 186" fill="none" stroke="rgb(0, 0, 0)" stroke-miterlimit="10" pointer-events="none"/><path d="M 0 186 L 160 186" fill="none" stroke="rgb(0, 0, 0)" stroke-miterlimit="10" pointer-events="none"/><g fill="rgb(0, 0, 0)" font-family="Helvetica" font-weight="bold" pointer-events="none" text-anchor="middle" font-size="12px"><text x="79.5" y="177.5">IntParm&lt;int&gt;</text></g><path d="M 0 190 L 160 190" fill="none" stroke="rgb(0, 0, 0)" stroke-miterlimit="10" pointer-events="none"/><path d="M 160 227 L 180 227 L 180 515.88" fill="none" stroke="rgb(0, 0, 0)" stroke-miterlimit="10" pointer-events="none"/><path d="M 180 528.88 L 173.5 515.88 L 186.5 515.88 Z" fill="none" stroke="rgb(0, 0, 0)" stroke-miterlimit="10" pointer-events="none"/><path d="M 0 236 L 0 210 L 160 210 L 160 236" fill="rgb(255, 255, 255)" stroke="rgb(0, 0, 0)" stroke-miterlimit="10" pointer-events="none"/><path d="M 0 236 L 0 244 L 160 244 L 160 236" fill="none" stroke="rgb(0, 0, 0)" stroke-miterlimit="10" pointer-events="none"/><path d="M 0 236 L 160 236" fill="none" stroke="rgb(0, 0, 0)" stroke-miterlimit="10" pointer-events="none"/><g fill="rgb(0, 0, 0)" font-family="Helvetica" font-weight="bold" pointer-events="none" text-anchor="middle" font-size="12px"><text x="79.5" y="227.5">DecimalParm&lt;float&gt;</text></g><path d="M 0 240 L 160 240" fill="none" stroke="rgb(0, 0, 0)" stroke-miterlimit="10" pointer-events="none"/><path d="M 160 277 L 180 277 L 180 515.88" fill="none" stroke="rgb(0, 0, 0)" stroke-miterlimit="10" pointer-events="none"/><path d="M 180 528.88 L 173.5 515.88 L 186.5 515.88 Z" fill="none" stroke="rgb(0, 0, 0)" stroke-miterlimit="10" pointer-events="none"/><path d="M 0 286 L 0 260 L 160 260 L 160 286" fill="rgb(255, 255, 255)" stroke="rgb(0, 0, 0)" stroke-miterlimit="10" pointer-events="none"/><path d="M 0 286 L 0 294 L 160 294 L 160 286" fill="none" stroke="rgb(0, 0, 0)" stroke-miterlimit="10" pointer-events="none"/><path d="M 0 286 L 160 286" fill="none" stroke="rgb(0, 0, 0)" stroke-miterlimit="10" pointer-events="none"/><g fill="rgb(0, 0, 0)" font-family="Helvetica" font-weight="bold" pointer-events="none" text-anchor="middle" font-size="12px"><text x="79.5" y="277.5">TextParm&lt;str&gt;</text></g><path d="M 0 290 L 160 290" fill="none" stroke="rgb(0, 0, 0)" stroke-miterlimit="10" pointer-events="none"/><path d="M 160 327 L 180 327 L 180 515.88" fill="none" stroke="rgb(0, 0, 0)" stroke-miterlimit="10" pointer-events="none"/><path d="M 180 528.88 L 173.5 515.88 L 186.5 515.88 Z" fill="none" stroke="rgb(0, 0, 0)" stroke-miterlimit="10" pointer-events="none"/><path d="M 0 336 L 0 310 L 160 310 L 160 336" fill="rgb(255, 255, 255)" stroke="rgb(0, 0, 0)" stroke-miterlimit="10" pointer-events="none"/><path d="M 0 336 L 0 344 L 160 344 L 160 336" fill="none" stroke="rgb(0, 0, 0)" stroke-miterlimit="10" pointer-events="none"/><path d="M 0 336 L 160 336" fill="none" stroke="rgb(0, 0, 0)" stroke-miterlimit="10" pointer-events="none"/><g fill="rgb(0, 0, 0)" font-family="Helvetica" font-weight="bold" pointer-events="none" text-anchor="middle" font-size="12px"><text x="79.5" y="327.5">FlagParm&lt;bool&gt;</text></g><path d="M 0 340 L 160 340" fill="none" stroke="rgb(0, 0, 0)" stroke-miterlimit="10" pointer-events="none"/><path d="M 160 377 L 180 377 L 180 515.88" fill="none" stroke="rgb(0, 0, 0)" stroke-miterlimit="10" pointer-events="none"/><path d="M 180 528.88 L 173.5 515.88 L 186.5 515.88 Z" fill="none" stroke="rgb(0, 0, 0)" stroke-miterlimit="10" pointer-events="none"/><path d="M 0 386 L 0 360 L 160 360 L 160 386" fill="rgb(255, 255, 255)" stroke="rgb(0, 0, 0)" stroke-miterlimit="10" pointer-events="none"/><path d="M 0 386 L 0 394 L 160 394 L 160 386" fill="none" stroke="rgb(0, 0, 0)" stroke-miterlimit="10" pointer-events="none"/><path d="M 0 386 L 160 386" fill="none" stroke="rgb(0, 0, 0)" stroke-miterlimit="10" pointer-events="none"/><g fill="rgb(0, 0, 0)" font-family="Helvetica" font-weight="bold" pointer-events="none" text-anchor="middle" font-size="12px"><text x="79.5" y="377.5">FileParm&lt;binaryIO&gt;</text></g><path d="M 0 390 L 160 390" fill="none" stroke="rgb(0, 0, 0)" stroke-miterlimit="10" pointer-events="none"/><path d="M 160 427 L 180 427 L 180 515.88" fill="none" stroke="rgb(0, 0, 0)" stroke-miterlimit="10" pointer-events="none"/><path d="M 180 528.88 L 173.5 515.88 L 186.5 515.88 Z" fill="none" stroke="rgb(0, 0, 0)" stroke-miterlimit="10" pointer-events="none"/><path d="M 0 436 L 0 410 L 160 410 L 160 436" fill="rgb(255, 255, 255)" stroke="rgb(0, 0, 0)" stroke-miterlimit="10" pointer-events="none"/><path d="M 0 436 L 0 444 L 160 444 L 160 436" fill="none" stroke="rgb(0, 0, 0)" stroke-miterlimit="10" pointer-events="none"/><path d="M 0 436 L 160 436" fill="none" stroke="rgb(0, 0, 0)" stroke-miterlimit="10" pointer-events="none"/><g fill="rgb(0, 0, 0)" font-family="Helvetica" font-weight="bold" pointer-events="none" text-anchor="middle" font-size="12px"><text x="79.5" y="427.5">BioSeqParm&lt;Bio.Seq&gt;</text></g><path d="M 0 440 L 160 440" fill="none" stroke="rgb(0, 0, 0)" stroke-miterlimit="10" pointer-events="none"/><path d="M 361 196 L 361 170 L 521 170 L 521 196" fill="rgb(255, 255, 255)" stroke="rgb(0, 0, 0)" stroke-miterlimit="10" pointer-events="none"/><path d="M 361 196 L 361 256 L 521 256 L 521 196" fill="none" stroke="rgb(0, 0, 0)" stroke-miterlimit="10" pointer-events="none"/><path d="M 361 196 L 521 196" fill="none" stroke="rgb(0, 0, 0)" stroke-miterlimit="10" pointer-events="none"/><g fill="rgb(0, 0, 0)" font-family="Helvetica" font-weight="bold" pointer-events="none" text-anchor="middle" font-size="12px"><text x="440.5" y="187.5">MaxNumber</text></g><g fill="rgb(0, 0, 0)" font-family="Helvetica" pointer-events="none" clip-path="url(#mx-clip-365-201-152-26-0)" font-size="12px"><text x="366.5" y="213.5">+ max</text></g><g fill="rgb(0, 0, 0)" font-family="Helvetica" pointer-events="none" clip-path="url(#mx-clip-365-227-152-26-0)" font-size="12px"><text x="366.5" y="239.5">+ max_inclusive</text></g><path d="M 361 252 L 521 252" fill="none" stroke="rgb(0, 0, 0)" stroke-miterlimit="10" pointer-events="none"/><path d="M 361 296 L 361 270 L 521 270 L 521 296" fill="rgb(255, 255, 255)" stroke="rgb(0, 0, 0)" stroke-miterlimit="10" pointer-events="none"/><path d="M 361 296 L 361 356 L 521 356 L 521 296" fill="none" stroke="rgb(0, 0, 0)" stroke-miterlimit="10" pointer-events="none"/><path d="M 361 296 L 521 296" fill="none" stroke="rgb(0, 0, 0)" stroke-miterlimit="10" pointer-events="none"/><g fill="rgb(0, 0, 0)" font-family="Helvetica" font-weight="bold" pointer-events="none" text-anchor="middle" font-size="12px"><text x="440.5" y="287.5">TextLength</text></g><g fill="rgb(0, 0, 0)" font-family="Helvetica" pointer-events="none" clip-path="url(#mx-clip-365-301-152-26-0)" font-size="12px"><text x="366.5" y="313.5">+ min_length</text></g><g fill="rgb(0, 0, 0)" font-family="Helvetica" pointer-events="none" clip-path="url(#mx-clip-365-327-152-26-0)" font-size="12px"><text x="366.5" y="339.5">+ max_length</text></g><path d="M 361 352 L 521 352" fill="none" stroke="rgb(0, 0, 0)" stroke-miterlimit="10" pointer-events="none"/><path d="M 361 26 L 361 0 L 521 0 L 521 26" fill="rgb(255, 255, 255)" stroke="rgb(0, 0, 0)" stroke-miterlimit="10" pointer-events="none"/><path d="M 361 26 L 361 60 L 521 60 L 521 26" fill="none" stroke="rgb(0, 0, 0)" stroke-miterlimit="10" pointer-events="none"/><path d="M 361 26 L 521 26" fill="none" stroke="rgb(0, 0, 0)" stroke-miterlimit="10" pointer-events="none"/><g fill="rgb(0, 0, 0)" font-family="Helvetica" font-weight="bold" pointer-events="none" text-anchor="middle" font-size="12px"><text x="440.5" y="17.5">ValueRequired</text></g><g fill="rgb(0, 0, 0)" font-family="Helvetica" pointer-events="none" clip-path="url(#mx-clip-365-31-152-26-0)" font-size="12px"><text x="366.5" y="43.5">+ required</text></g><path d="M 361 56 L 521 56" fill="none" stroke="rgb(0, 0, 0)" stroke-miterlimit="10" pointer-events="none"/><path d="M 360 96 L 360 70 L 520 70 L 520 96" fill="rgb(255, 255, 255)" stroke="rgb(0, 0, 0)" stroke-miterlimit="10" pointer-events="none"/><path d="M 360 96 L 360 156 L 520 156 L 520 96" fill="none" stroke="rgb(0, 0, 0)" stroke-miterlimit="10" pointer-events="none"/><path d="M 360 96 L 520 96" fill="none" stroke="rgb(0, 0, 0)" stroke-miterlimit="10" pointer-events="none"/><g fill="rgb(0, 0, 0)" font-family="Helvetica" font-weight="bold" pointer-events="none" text-anchor="middle" font-size="12px"><text x="439.5" y="87.5">MinNumber</text></g><g fill="rgb(0, 0, 0)" font-family="Helvetica" pointer-events="none" clip-path="url(#mx-clip-364-101-152-26-0)" font-size="12px"><text x="365.5" y="113.5">+ min</text></g><g fill="rgb(0, 0, 0)" font-family="Helvetica" pointer-events="none" clip-path="url(#mx-clip-364-127-152-26-0)" font-size="12px"><text x="365.5" y="139.5">+ min_inclusive</text></g><path d="M 360 152 L 520 152" fill="none" stroke="rgb(0, 0, 0)" stroke-miterlimit="10" pointer-events="none"/><path d="M 361 396 L 361 370 L 521 370 L 521 396" fill="rgb(255, 255, 255)" stroke="rgb(0, 0, 0)" stroke-miterlimit="10" pointer-events="none"/><path d="M 361 396 L 361 430 L 521 430 L 521 396" fill="none" stroke="rgb(0, 0, 0)" stroke-miterlimit="10" pointer-events="none"/><path d="M 361 396 L 521 396" fill="none" stroke="rgb(0, 0, 0)" stroke-miterlimit="10" pointer-events="none"/><g fill="rgb(0, 0, 0)" font-family="Helvetica" font-weight="bold" pointer-events="none" text-anchor="middle" font-size="12px"><text x="440.5" y="387.5">TextPattern</text></g><g fill="rgb(0, 0, 0)" font-family="Helvetica" pointer-events="none" clip-path="url(#mx-clip-365-401-152-26-0)" font-size="12px"><text x="366.5" y="413.5">+ pattern</text></g><path d="M 361 426 L 521 426" fill="none" stroke="rgb(0, 0, 0)" stroke-miterlimit="10" pointer-events="none"/><path d="M 361 468 L 361 442 L 521 442 L 521 468" fill="rgb(255, 255, 255)" stroke="rgb(0, 0, 0)" stroke-miterlimit="10" pointer-events="none"/><path d="M 361 468 L 361 502 L 521 502 L 521 468" fill="none" stroke="rgb(0, 0, 0)" stroke-miterlimit="10" pointer-events="none"/><path d="M 361 468 L 521 468" fill="none" stroke="rgb(0, 0, 0)" stroke-miterlimit="10" pointer-events="none"/><g fill="rgb(0, 0, 0)" font-family="Helvetica" font-weight="bold" pointer-events="none" text-anchor="middle" font-size="12px"><text x="440.5" y="459.5">Choice</text></g><g fill="rgb(0, 0, 0)" font-family="Helvetica" pointer-events="none" clip-path="url(#mx-clip-365-473-152-26-0)" font-size="12px"><text x="366.5" y="485.5">+ choices</text></g><path d="M 361 498 L 521 498" fill="none" stroke="rgb(0, 0, 0)" stroke-miterlimit="10" pointer-events="none"/><path d="M 258.71 569 L 275 569 L 260 569 L 287.76 569" fill="none" stroke="rgb(0, 0, 0)" stroke-miterlimit="10" pointer-events="none"/><path d="M 245.71 569 L 252.21 562.5 L 258.71 569 L 252.21 575.5 Z" fill="rgb(0, 0, 0)" stroke="rgb(0, 0, 0)" stroke-miterlimit="10" pointer-events="none"/><path d="M 275.88 575.5 L 288.88 569 L 275.88 562.5" fill="none" stroke="rgb(0, 0, 0)" stroke-miterlimit="10" pointer-events="none"/><path d="M 330 524.88 L 330 30 L 361 30" fill="none" stroke="rgb(0, 0, 0)" stroke-miterlimit="10" pointer-events="none"/><path d="M 330 537.88 L 323.5 524.88 L 336.5 524.88 Z" fill="none" stroke="rgb(0, 0, 0)" stroke-miterlimit="10" pointer-events="none"/><path d="M 330 524.88 L 330 113 L 360 113" fill="none" stroke="rgb(0, 0, 0)" stroke-miterlimit="10" pointer-events="none"/><path d="M 330 537.88 L 323.5 524.88 L 336.5 524.88 Z" fill="none" stroke="rgb(0, 0, 0)" stroke-miterlimit="10" pointer-events="none"/><path d="M 330 524.88 L 330 213 L 361 213" fill="none" stroke="rgb(0, 0, 0)" stroke-miterlimit="10" pointer-events="none"/><path d="M 330 537.88 L 323.5 524.88 L 336.5 524.88 Z" fill="none" stroke="rgb(0, 0, 0)" stroke-miterlimit="10" pointer-events="none"/><path d="M 330 524.88 L 330 313 L 361 313" fill="none" stroke="rgb(0, 0, 0)" stroke-miterlimit="10" pointer-events="none"/><path d="M 330 537.88 L 323.5 524.88 L 336.5 524.88 Z" fill="none" stroke="rgb(0, 0, 0)" stroke-miterlimit="10" pointer-events="none"/><path d="M 330 524.88 L 330 400 L 361 400" fill="none" stroke="rgb(0, 0, 0)" stroke-miterlimit="10" pointer-events="none"/><path d="M 330 537.88 L 323.5 524.88 L 336.5 524.88 Z" fill="none" stroke="rgb(0, 0, 0)" stroke-miterlimit="10" pointer-events="none"/><path d="M 330 524.88 L 330 472 L 361 472" fill="none" stroke="rgb(0, 0, 0)" stroke-miterlimit="10" pointer-events="none"/><path d="M 330 537.88 L 323.5 524.88 L 336.5 524.88 Z" fill="none" stroke="rgb(0, 0, 0)" stroke-miterlimit="10" pointer-events="none"/><path d="M 290 565 L 290 539 L 450 539 L 450 565" fill="rgb(255, 255, 255)" stroke="rgb(0, 0, 0)" stroke-miterlimit="10" pointer-events="none"/><path d="M 290 565 L 290 599 L 450 599 L 450 565" fill="none" stroke="rgb(0, 0, 0)" stroke-miterlimit="10" pointer-events="none"/><path d="M 290 565 L 450 565" fill="none" stroke="rgb(0, 0, 0)" stroke-miterlimit="10" pointer-events="none"/><g fill="rgb(0, 0, 0)" font-family="Helvetica" font-weight="bold" pointer-events="none" text-anchor="middle" font-size="12px"><text x="369.5" y="556.5">Constraint</text></g><path d="M 290 569 L 450 569" fill="none" stroke="rgb(0, 0, 0)" stroke-miterlimit="10" pointer-events="none"/><g fill="rgb(0, 0, 0)" font-family="Helvetica" pointer-events="none" clip-path="url(#mx-clip-294-578-152-26-0)" font-size="12px"><text x="295.5" y="590.5">+ check_value(val)</text></g></g></svg>