<?xml version="1.0" encoding="UTF-8"?>
<!DOCTYPE svg PUBLIC "-//W3C//DTD SVG 1.1//EN" "http://www.w3.org/Graphics/SVG/1.1/DTD/svg11.dtd">
<svg xmlns="http://www.w3.org/2000/svg" style="background-color: rgb(255, 255, 255);" xmlns:xlink="http://www.w3.org/1999/xlink" version="1.1" width="341px" height="449px" viewBox="-0.5 -0.5 341 449"><defs><clipPath id="mx-clip-94-221-152-26-0"><rect x="94" y="221" width="152" height="26"/></clipPath><clipPath id="mx-clip-94-247-152-26-0"><rect x="94" y="247" width="152" height="26"/></clipPath><clipPath id="mx-clip-94-341-152-26-0"><rect x="94" y="341" width="152" height="26"/></clipPath><clipPath id="mx-clip-94-367-152-26-0"><rect x="94" y="367" width="152" height="26"/></clipPath><clipPath id="mx-clip-94-393-152-26-0"><rect x="94" y="393" width="152" height="26"/></clipPath><clipPath id="mx-clip-94-419-152-26-0"><rect x="94" y="419" width="152" height="26"/></clipPath><clipPath id="mx-clip-184-121-152-26-0"><rect x="184" y="121" width="152" height="26"/></clipPath></defs><g><path d="M 125.51 179.11 L 80 124" fill="none" stroke="rgb(0, 0, 0)" stroke-miterlimit="10" pointer-events="stroke"/><path d="M 133.78 189.14 L 120.49 183.25 L 130.52 174.97 Z" fill="none" stroke="rgb(0, 0, 0)" stroke-miterlimit="10" pointer-events="all"/><path d="M 170 276 L 170 295.88" fill="none" stroke="rgb(0, 0, 0)" stroke-miterlimit="10" pointer-events="stroke"/><path d="M 170 308.88 L 163.5 295.88 L 176.5 295.88 Z" fill="none" stroke="rgb(0, 0, 0)" stroke-miterlimit="10" pointer-events="all"/><path d="M 90 216 L 90 190 L 250 190 L 250 216" fill="rgb(255, 255, 255)" stroke="rgb(0, 0, 0)" stroke-miterlimit="10" pointer-events="all"/><path d="M 90 216 L 90 276 L 250 276 L 250 216" fill="none" stroke="rgb(0, 0, 0)" stroke-miterlimit="10" pointer-events="none"/><path d="M 90 216 L 250 216" fill="none" stroke="rgb(0, 0, 0)" stroke-miterlimit="10" pointer-events="none"/><g fill="rgb(0, 0, 0)" font-family="Helvetica" font-weight="bold" pointer-events="none" text-anchor="middle" font-size="12px"><text x="169.5" y="207.5">IntField&lt;int&gt;</text></g><g fill="rgb(0, 0, 0)" font-family="Helvetica" pointer-events="none" clip-path="url(#mx-clip-94-221-152-26-0)" font-size="12px"><text x="95.5" y="233.5">- min</text></g><g fill="rgb(0, 0, 0)" font-family="Helvetica" pointer-events="none" clip-path="url(#mx-clip-94-247-152-26-0)" font-size="12px"><text x="95.5" y="259.5">- max</text></g><path d="M 90 272 L 250 272" fill="none" stroke="rgb(0, 0, 0)" stroke-miterlimit="10" pointer-events="none"/><path d="M 0 116 L 0 90 L 160 90 L 160 116" fill="rgb(255, 255, 255)" stroke="rgb(0, 0, 0)" stroke-miterlimit="10" pointer-events="none"/><path d="M 0 116 L 0 124 L 160 124 L 160 116" fill="none" stroke="rgb(0, 0, 0)" stroke-miterlimit="10" pointer-events="none"/><path d="M 0 116 L 160 116" fill="none" stroke="rgb(0, 0, 0)" stroke-miterlimit="10" pointer-events="none"/><g fill="rgb(0, 0, 0)" font-family="Helvetica" font-weight="bold" pointer-events="none" text-anchor="middle" font-size="12px"><text x="79.5" y="107.5">PrimeIntField&lt;int&gt;</text></g><path d="M 0 120 L 160 120" fill="none" stroke="rgb(0, 0, 0)" stroke-miterlimit="10" pointer-events="none"/><path d="M 90 336 L 90 310 L 250 310 L 250 336" fill="rgb(255, 255, 255)" stroke="rgb(0, 0, 0)" stroke-miterlimit="10" pointer-events="none"/><path d="M 90 336 L 90 448 L 250 448 L 250 336" fill="none" stroke="rgb(0, 0, 0)" stroke-miterlimit="10" pointer-events="none"/><path d="M 90 336 L 250 336" fill="none" stroke="rgb(0, 0, 0)" stroke-miterlimit="10" pointer-events="none"/><g fill="rgb(0, 0, 0)" font-family="Helvetica" font-weight="bold" pointer-events="none" text-anchor="middle" font-size="12px"><text x="169.5" y="327.5">BaseField</text></g><g fill="rgb(0, 0, 0)" font-family="Helvetica" pointer-events="none" clip-path="url(#mx-clip-94-341-152-26-0)" font-size="12px"><text x="95.5" y="353.5">+ name</text></g><g fill="rgb(0, 0, 0)" font-family="Helvetica" pointer-events="none" clip-path="url(#mx-clip-94-367-152-26-0)" font-size="12px"><text x="95.5" y="379.5">+ description</text></g><g fill="rgb(0, 0, 0)" font-family="Helvetica" pointer-events="none" clip-path="url(#mx-clip-94-393-152-26-0)" font-size="12px"><text x="95.5" y="405.5">+ default</text></g><g fill="rgb(0, 0, 0)" font-family="Helvetica" pointer-events="none" clip-path="url(#mx-clip-94-419-152-26-0)" font-size="12px"><text x="95.5" y="431.5">+ required</text></g><path d="M 90 444 L 250 444" fill="none" stroke="rgb(0, 0, 0)" stroke-miterlimit="10" pointer-events="none"/><path d="M 227 180.43 L 260 150" fill="none" stroke="rgb(0, 0, 0)" stroke-miterlimit="10" pointer-events="none"/><path d="M 217.45 189.24 L 222.6 175.65 L 231.41 185.21 Z" fill="none" stroke="rgb(0, 0, 0)" stroke-miterlimit="10" pointer-events="none"/><path d="M 180 116 L 180 90 L 340 90 L 340 116" fill="rgb(255, 255, 255)" stroke="rgb(0, 0, 0)" stroke-miterlimit="10" pointer-events="none"/><path d="M 180 116 L 180 150 L 340 150 L 340 116" fill="none" stroke="rgb(0, 0, 0)" stroke-miterlimit="10" pointer-events="none"/><path d="M 180 116 L 340 116" fill="none" stroke="rgb(0, 0, 0)" stroke-miterlimit="10" pointer-events="none"/><g fill="rgb(0, 0, 0)" font-family="Helvetica" font-weight="bold" pointer-events="none" text-anchor="middle" font-size="12px"><text x="259.5" y="107.5">DivisibleByIntField&lt;int&gt;</text></g><g fill="rgb(0, 0, 0)" font-family="Helvetica" pointer-events="none" clip-path="url(#mx-clip-184-121-152-26-0)" font-size="12px"><text x="185.5" y="133.5">- divisibleBy</text></g><path d="M 180 146 L 340 146" fill="none" stroke="rgb(0, 0, 0)" stroke-miterlimit="10" pointer-events="none"/><path d="M 149.04 34 L 90.96 81.11" fill="none" stroke="rgb(0, 0, 0)" stroke-miterlimit="10" pointer-events="none"/><path d="M 80.87 89.3 L 86.87 76.06 L 95.06 86.15 Z" fill="none" stroke="rgb(0, 0, 0)" stroke-miterlimit="10" pointer-events="none"/><path d="M 190.96 34 L 249.04 81.11" fill="none" stroke="rgb(0, 0, 0)" stroke-miterlimit="10" pointer-events="none"/><path d="M 259.13 89.3 L 244.94 86.15 L 253.13 76.06 Z" fill="none" stroke="rgb(0, 0, 0)" stroke-miterlimit="10" pointer-events="none"/><path d="M 90 26 L 90 0 L 250 0 L 250 26" fill="rgb(255, 255, 255)" stroke="rgb(0, 0, 0)" stroke-miterlimit="10" pointer-events="none"/><path d="M 90 26 L 90 34 L 250 34 L 250 26" fill="none" stroke="rgb(0, 0, 0)" stroke-miterlimit="10" pointer-events="none"/><path d="M 90 26 L 250 26" fill="none" stroke="rgb(0, 0, 0)" stroke-miterlimit="10" pointer-events="none"/><g fill="rgb(0, 0, 0)" font-family="Helvetica" font-weight="bold" pointer-events="none" text-anchor="middle" font-size="12px"><text x="169.5" y="17.5">PrimeDivisibleByIntField</text></g><path d="M 90 30 L 250 30" fill="none" stroke="rgb(0, 0, 0)" stroke-miterlimit="10" pointer-events="none"/></g></svg>